<svg width="48" height="48" viewBox="0 0 48 48" fill="none" xmlns="http://www.w3.org/2000/svg">
<rect width="48" height="48" rx="24" fill="#046BF5"/>
<g clip-path="url(#clip0_236_3153)">
<path fill-rule="evenodd" clip-rule="evenodd" d="M19.2813 21.363C19.5279 21.6388 19.8803 21.7964 20.2503 21.7964C20.6202 21.7964 20.9726 21.6388 21.2193 21.363L21.8463 20.669C22.2164 20.2587 22.8048 20.1258 23.3154 20.3371C23.8259 20.5483 24.1482 21.0581 24.1203 21.61L24.0723 22.545C24.0537 22.9139 24.1922 23.2736 24.4535 23.5348C24.7146 23.7961 25.0743 23.9345 25.4433 23.916L26.3772 23.868C26.9293 23.8396 27.4395 24.1618 27.651 24.6724C27.8626 25.1831 27.7297 25.7717 27.3192 26.142L26.6253 26.768C26.3509 27.0156 26.1943 27.3679 26.1943 27.7375C26.1943 28.1071 26.3509 28.4594 26.6253 28.707L27.3192 29.334C27.7297 29.7042 27.8626 30.2928 27.651 30.8035C27.4395 31.3143 26.9293 31.6364 26.3772 31.608L25.4433 31.56C25.0743 31.5414 24.7146 31.6799 24.4535 31.9411C24.1922 32.2024 24.0537 32.562 24.0723 32.931L24.1203 33.865C24.1488 34.417 23.8266 34.9272 23.3158 35.1388C22.8051 35.3503 22.2165 35.2174 21.8463 34.807L21.2193 34.113C20.9726 33.8372 20.6202 33.6796 20.2503 33.6796C19.8803 33.6796 19.5279 33.8372 19.2813 34.113L18.6543 34.807C18.284 35.2174 17.6954 35.3503 17.1847 35.1388C16.674 34.9272 16.3518 34.417 16.3803 33.865L16.4283 32.931C16.4468 32.562 16.3083 32.2024 16.0471 31.9411C15.7859 31.6799 15.4263 31.5414 15.0573 31.56L14.1233 31.608C13.5712 31.6364 13.061 31.3143 12.8495 30.8035C12.6379 30.2928 12.7708 29.7042 13.1813 29.334L13.8753 28.707C14.1496 28.4594 14.3062 28.1071 14.3062 27.7375C14.3062 27.3679 14.1496 27.0156 13.8753 26.768L13.1813 26.142C12.7708 25.7717 12.6379 25.1831 12.8495 24.6724C13.061 24.1618 13.5712 23.8396 14.1233 23.868L15.0573 23.916C15.4263 23.9345 15.7859 23.7961 16.0471 23.5348C16.3083 23.2736 16.4468 22.9139 16.4283 22.545L16.3803 21.61C16.3523 21.0581 16.6746 20.5483 17.1852 20.3371C17.6958 20.1258 18.2841 20.2587 18.6543 20.669L19.2813 21.363Z" stroke="white" stroke-width="1.5" stroke-linecap="round" stroke-linejoin="round"/>
<path d="M30.6406 16.9868C30.4335 16.9868 30.2656 17.1547 30.2656 17.3618C30.2656 17.5689 30.4335 17.7368 30.6406 17.7368C30.8477 17.7368 31.0156 17.5689 31.0156 17.3618C31.0159 17.2623 30.9765 17.1667 30.9061 17.0964C30.8357 17.026 30.7401 16.9866 30.6406 16.9868Z" stroke="white" stroke-width="1.5" stroke-linecap="round" stroke-linejoin="round"/>
<path fill-rule="evenodd" clip-rule="evenodd" d="M33.1915 13.8349C33.4686 13.7276 33.7829 13.794 33.993 14.0042C34.203 14.2145 34.2691 14.5289 34.1615 14.8059L33.6615 16.0919C33.5437 16.3967 33.6363 16.7427 33.8905 16.9479L34.9665 17.8129C35.1977 17.9992 35.2972 18.3043 35.2203 18.591C35.1435 18.8777 34.9048 19.0922 34.6115 19.1379L33.2475 19.3489C32.9245 19.3992 32.6712 19.6529 32.6215 19.9759L32.4105 21.339C32.3651 21.6327 32.1504 21.8719 31.8633 21.9488C31.5761 22.0257 31.2706 21.9258 31.0845 21.6939L30.2205 20.619C30.0154 20.3645 29.6693 20.2719 29.3645 20.3899L28.0775 20.8899C27.8003 20.9973 27.486 20.9309 27.2759 20.7206C27.0659 20.5104 26.9999 20.1959 27.1075 19.9189L27.6075 18.6329C27.7253 18.3282 27.6327 17.9822 27.3785 17.7769L26.3025 16.9129C26.0716 16.7264 25.9722 16.4213 26.049 16.1346C26.1257 15.8478 26.3643 15.6332 26.6575 15.5869L28.0215 15.3759C28.3445 15.3264 28.598 15.073 28.6475 14.7499L28.8585 13.3859C28.9039 13.0922 29.1185 12.8529 29.4057 12.776C29.6929 12.6992 29.9984 12.7991 30.1845 13.0309L31.0495 14.1059C31.2539 14.3609 31.5998 14.454 31.9045 14.3359L33.1915 13.8349Z" stroke="white" stroke-width="1.5" stroke-linecap="round" stroke-linejoin="round"/>
<path d="M21.4453 25.5601H19.6953C19.1719 25.5933 18.7733 26.0425 18.8023 26.5661C18.7911 26.9605 19.0106 27.3253 19.3643 27.5001L21.1343 28.1191C21.4876 28.2949 21.7069 28.6597 21.6964 29.0541C21.7253 29.5781 21.3261 30.0274 20.8023 30.0601H18.6953" stroke="white" stroke-width="1.5" stroke-linecap="round" stroke-linejoin="round"/>
<path d="M20.1953 25.5601V24.5601" stroke="white" stroke-width="1.5" stroke-linecap="round" stroke-linejoin="round"/>
<path d="M20.1953 31.0601V30.0601" stroke="white" stroke-width="1.5" stroke-linecap="round" stroke-linejoin="round"/>
</g>
<defs>
<clipPath id="clip0_236_3153">
<rect width="24" height="24" fill="white" transform="translate(12 12)"/>
</clipPath>
</defs>
</svg>
