<svg width="24" height="24" viewBox="0 0 24 24" fill="none" xmlns="http://www.w3.org/2000/svg">
<g clip-path="url(#clip0_236_3123)">
<path d="M11.25 18H21.75C22.5784 18 23.25 17.3553 23.25 16.56V2.15997C23.25 1.36468 22.5784 0.719971 21.75 0.719971H6.75C5.92157 0.719971 5.25 1.36468 5.25 2.15997V12.24" stroke="white" stroke-width="1.5" stroke-linecap="round" stroke-linejoin="round"/>
<path d="M0.75 17.9999V16.5599" stroke="white" stroke-width="1.5" stroke-linecap="round" stroke-linejoin="round"/>
<path d="M0.75 13.68C0.75 12.8847 1.42157 12.24 2.25 12.24" stroke="white" stroke-width="1.5" stroke-linecap="round" stroke-linejoin="round"/>
<path d="M11.25 17.9999V16.5599" stroke="white" stroke-width="1.5" stroke-linecap="round" stroke-linejoin="round"/>
<path d="M11.25 13.68C11.25 12.8847 10.5784 12.24 9.75 12.24" stroke="white" stroke-width="1.5" stroke-linecap="round" stroke-linejoin="round"/>
<path d="M0.75 20.88C0.75 21.6753 1.42157 22.32 2.25 22.32" stroke="white" stroke-width="1.5" stroke-linecap="round" stroke-linejoin="round"/>
<path d="M11.25 20.88C11.25 21.6753 10.5784 22.32 9.75 22.32" stroke="white" stroke-width="1.5" stroke-linecap="round" stroke-linejoin="round"/>
<path d="M5.25 12.24H6.75" stroke="white" stroke-width="1.5" stroke-linecap="round" stroke-linejoin="round"/>
<path d="M5.25 22.3199H6.75" stroke="white" stroke-width="1.5" stroke-linecap="round" stroke-linejoin="round"/>
<path d="M15.75 3.59996H19.5C19.9142 3.59996 20.25 3.92231 20.25 4.31996V7.91996" stroke="white" stroke-width="1.5" stroke-linecap="round" stroke-linejoin="round"/>
<path d="M20.031 3.8112L13.5 10.08" stroke="white" stroke-width="1.5" stroke-linecap="round" stroke-linejoin="round"/>
</g>
<defs>
<clipPath id="clip0_236_3123">
<rect width="24" height="24" fill="white"/>
</clipPath>
</defs>
</svg>
