<svg width="24" height="24" viewBox="0 0 24 24" fill="none" xmlns="http://www.w3.org/2000/svg">
<g clip-path="url(#clip0_236_3154)">
<path fill-rule="evenodd" clip-rule="evenodd" d="M7.28127 9.36301C7.52789 9.63875 7.88032 9.79638 8.25027 9.79638C8.62024 9.79638 8.97261 9.63875 9.2193 9.36301L9.84629 8.66898C10.2164 8.25869 10.8048 8.12577 11.3154 8.33706C11.8259 8.54834 12.1482 9.05812 12.1203 9.60995L12.0723 10.545C12.0537 10.9139 12.1922 11.2736 12.4535 11.5348C12.7146 11.7961 13.0743 11.9345 13.4433 11.916L14.3772 11.868C14.9293 11.8396 15.4395 12.1618 15.651 12.6724C15.8626 13.1831 15.7297 13.7717 15.3192 14.142L14.6253 14.768C14.3509 15.0156 14.1943 15.3679 14.1943 15.7375C14.1943 16.1071 14.3509 16.4594 14.6253 16.707L15.3192 17.334C15.7297 17.7042 15.8626 18.2928 15.651 18.8035C15.4395 19.3143 14.9293 19.6364 14.3772 19.608L13.4433 19.56C13.0743 19.5414 12.7146 19.6799 12.4535 19.9411C12.1922 20.2024 12.0537 20.562 12.0723 20.931L12.1203 21.865C12.1488 22.417 11.8266 22.9272 11.3158 23.1388C10.8051 23.3503 10.2165 23.2174 9.84629 22.807L9.2193 22.113C8.97261 21.8372 8.62024 21.6796 8.25027 21.6796C7.88032 21.6796 7.52789 21.8372 7.28127 22.113L6.65427 22.807C6.28399 23.2174 5.69542 23.3503 5.18472 23.1388C4.67401 22.9272 4.35182 22.417 4.38027 21.865L4.42827 20.931C4.44683 20.562 4.30835 20.2024 4.04711 19.9411C3.78586 19.6799 3.42625 19.5414 3.05726 19.56L2.12327 19.608C1.57122 19.6364 1.06104 19.3143 0.849484 18.8035C0.637926 18.2928 0.77081 17.7042 1.18127 17.334L1.87526 16.707C2.14962 16.4594 2.30622 16.1071 2.30622 15.7375C2.30622 15.3679 2.14962 15.0156 1.87526 14.768L1.18127 14.142C0.77081 13.7717 0.637926 13.1831 0.849484 12.6724C1.06104 12.1618 1.57122 11.8396 2.12327 11.868L3.05726 11.916C3.42625 11.9345 3.78586 11.7961 4.04711 11.5348C4.30835 11.2736 4.44683 10.9139 4.42827 10.545L4.38027 9.60995C4.35228 9.05812 4.67464 8.54834 5.18522 8.33706C5.69581 8.12577 6.28411 8.25869 6.65427 8.66898L7.28127 9.36301Z" stroke="white" stroke-width="1.5" stroke-linecap="round" stroke-linejoin="round"/>
<path d="M18.6406 4.98682C18.4335 4.98682 18.2656 5.15471 18.2656 5.36182C18.2656 5.56892 18.4335 5.73682 18.6406 5.73682C18.8477 5.73682 19.0156 5.56892 19.0156 5.36182C19.0159 5.26228 18.9765 5.16674 18.9061 5.09635C18.8357 5.02597 18.7401 4.98655 18.6406 4.98682Z" stroke="white" stroke-width="1.5" stroke-linecap="round" stroke-linejoin="round"/>
<path fill-rule="evenodd" clip-rule="evenodd" d="M21.1915 1.83494C21.4686 1.72759 21.7829 1.79399 21.993 2.00424C22.203 2.2145 22.2691 2.52893 22.1615 2.80594L21.6615 4.09194C21.5437 4.39672 21.6363 4.74266 21.8905 4.94794L22.9665 5.81294C23.1977 5.99921 23.2972 6.30428 23.2203 6.59101C23.1435 6.87774 22.9048 7.09218 22.6115 7.13794L21.2475 7.34894C20.9245 7.39918 20.6712 7.65285 20.6215 7.97594L20.4105 9.33896C20.3651 9.63271 20.1504 9.87194 19.8633 9.94882C19.5761 10.0257 19.2706 9.92576 19.0845 9.69391L18.2205 8.61896C18.0154 8.36448 17.6693 8.27187 17.3645 8.38994L16.0775 8.88991C15.8003 8.99731 15.486 8.93088 15.2759 8.72062C15.0659 8.51039 14.9999 8.19595 15.1075 7.91894L15.6075 6.63294C15.7253 6.32816 15.6327 5.98223 15.3785 5.77694L14.3025 4.91294C14.0716 4.72638 13.9722 4.42131 14.049 4.13456C14.1257 3.8478 14.3643 3.63318 14.6575 3.58694L16.0215 3.37594C16.3445 3.32642 16.598 3.07295 16.6475 2.74994L16.8585 1.38594C16.9039 1.09215 17.1185 0.852916 17.4057 0.776035C17.6929 0.699154 17.9984 0.799141 18.1845 1.03094L19.0495 2.10594C19.2539 2.36088 19.5998 2.45396 19.9045 2.33594L21.1915 1.83494Z" stroke="white" stroke-width="1.5" stroke-linecap="round" stroke-linejoin="round"/>
<path d="M9.44529 13.5601H7.69532C7.17192 13.5933 6.77325 14.0425 6.80232 14.5661C6.79115 14.9605 7.01064 15.3253 7.36431 15.5001L9.13432 16.1191C9.48764 16.2949 9.70689 16.6597 9.69635 17.0541C9.72532 17.5781 9.32615 18.0274 8.80235 18.0601H6.69531" stroke="white" stroke-width="1.5" stroke-linecap="round" stroke-linejoin="round"/>
<path d="M8.19531 13.5601V12.5601" stroke="white" stroke-width="1.5" stroke-linecap="round" stroke-linejoin="round"/>
<path d="M8.19531 19.0601V18.0601" stroke="white" stroke-width="1.5" stroke-linecap="round" stroke-linejoin="round"/>
</g>
<defs>
<clipPath id="clip0_236_3154">
<rect width="24" height="24" fill="white"/>
</clipPath>
</defs>
</svg>
