<svg width="616" height="644" viewBox="0 0 616 644" fill="none" xmlns="http://www.w3.org/2000/svg">
<path d="M109.533 154.109C109.533 151.862 111.361 150.033 113.609 150.033C115.855 150.033 117.685 151.862 117.685 154.109C117.685 156.357 115.855 158.186 113.609 158.186C111.361 158.186 109.533 156.357 109.533 154.109ZM169.811 364.912L182.068 352.653V311.46L194.055 299.475V278.992C196.371 278.575 198.131 276.56 198.131 274.124C198.131 271.387 195.912 269.168 193.175 269.168C190.438 269.168 188.219 271.387 188.219 274.124C188.219 276.56 189.979 278.575 192.295 278.992V298.746L181.188 309.852L172.083 300.747V278.992C174.399 278.575 176.159 276.56 176.159 274.124C176.159 271.387 173.94 269.168 171.203 269.168C168.466 269.168 166.247 271.387 166.247 274.124C166.247 276.56 168.007 278.575 170.323 278.992V301.476L180.308 311.46V351.925L169.299 362.933L133.752 327.387V276.384L147.169 262.967V207.763C149.485 207.348 151.245 205.332 151.245 202.897C151.245 200.16 149.027 197.94 146.289 197.94C143.552 197.94 141.334 200.16 141.334 202.897C141.334 205.332 143.094 207.348 145.409 207.763V262.239L132.872 274.775L114.489 256.39V234.079L131.696 216.868V162.769L159.501 134.964C160.296 135.517 161.261 135.846 162.303 135.846C165.024 135.846 167.231 133.639 167.231 130.916C167.231 128.195 165.024 125.988 162.303 125.988C159.582 125.988 157.375 128.195 157.375 130.916C157.375 131.96 157.704 132.924 158.257 133.72L129.936 162.04V216.139L114.489 231.59V159.856C117.287 159.428 119.445 157.026 119.445 154.109C119.445 150.89 116.826 148.273 113.609 148.273C110.39 148.273 107.772 150.89 107.772 154.109C107.772 157.026 109.929 159.428 112.729 159.856V211.788L92.3514 191.411V142.293C94.6525 141.876 96.4001 139.873 96.4001 137.453C96.4001 134.73 94.1931 132.525 91.4721 132.525C88.7503 132.525 86.5441 134.73 86.5441 137.453C86.5441 139.873 88.2916 141.876 90.5914 142.291V192.14L112.729 214.277V257.119L131.992 276.384V325.627L116.838 310.473V284.249L89.2563 256.666V219.516C91.5566 219.099 93.305 217.098 93.305 214.676C93.305 211.955 91.0981 209.748 88.3763 209.748C85.6544 209.748 83.4483 211.955 83.4483 214.676C83.4483 217.096 85.1951 219.099 87.4963 219.516V254.906L71.1392 238.551V219.217L57.6113 205.688V171.479C59.9116 171.062 61.6593 169.061 61.6593 166.641C61.6593 163.918 59.4532 161.711 56.7313 161.711C54.0095 161.711 51.8026 163.918 51.8026 166.641C51.8026 169.061 53.551 171.063 55.8513 171.479V206.417L69.3792 219.946V236.791L24.7495 192.161C25.3077 191.358 25.6384 190.388 25.6384 189.338C25.6384 186.601 23.4191 184.381 20.6823 184.381C17.9453 184.381 15.7261 186.601 15.7261 189.338C15.7261 192.074 17.9453 194.294 20.6823 194.294C21.7334 194.294 22.7035 193.963 23.5052 193.405L58.2231 228.123H29.7539L16.8034 215.171C17.3554 214.375 17.6841 213.411 17.6841 212.369C17.6841 209.646 15.4771 207.441 12.7554 207.441C10.0336 207.441 7.82812 209.646 7.82812 212.369C7.82812 215.09 10.0336 217.297 12.7554 217.297C13.7982 217.297 14.7622 216.968 15.5582 216.417L28.145 229.003L15.6455 241.502C14.8488 240.95 13.8855 240.62 12.842 240.62C10.1209 240.62 7.91472 242.828 7.91472 245.548C7.91472 248.271 10.1209 250.478 12.842 250.478C15.5639 250.478 17.7707 248.271 17.7707 245.548C17.7707 244.507 17.4421 243.544 16.89 242.747L29.7539 229.883H59.9831L115.078 284.978V308.713L94.6063 288.241C95.1591 287.445 95.4877 286.481 95.4877 285.439C95.4877 282.716 93.2809 280.511 90.559 280.511C87.8372 280.511 85.631 282.716 85.631 285.439C85.631 288.16 87.8372 290.367 90.559 290.367C91.602 290.367 92.5651 290.038 93.3613 289.485L115.337 311.459L168.051 364.174V395.643L288.68 516.273V749H290.44V515.543L169.811 394.913V364.912Z" fill="url(#paint0_linear_181_1637)"/>
<path d="M59.9322 273.589C59.9322 271.341 61.761 269.513 64.0077 269.513C66.2566 269.513 68.0845 271.341 68.0845 273.589C68.0845 275.836 66.2566 277.665 64.0077 277.665C61.761 277.665 59.9322 275.836 59.9322 273.589ZM134.987 386.201L80.3172 331.533V303.134L64.8877 287.704V279.337C67.6873 278.908 69.8445 276.505 69.8445 273.589C69.8445 270.37 67.2265 267.753 64.0077 267.753C60.7895 267.753 58.1722 270.37 58.1722 273.589C58.1722 276.505 60.3289 278.908 63.1277 279.337V288.433L78.5572 303.863V331.018H62.3007L46.0985 314.815C46.656 314.013 46.9872 313.041 46.9872 311.992C46.9872 309.255 44.7688 307.036 42.0311 307.036C39.2941 307.036 37.0742 309.255 37.0742 311.992C37.0742 314.729 39.2941 316.948 42.0311 316.948C43.0816 316.948 44.0524 316.616 44.8539 316.059L61.572 332.778H79.0729L113.54 367.244H91.9325L79.6676 354.978C80.2205 354.181 80.5483 353.218 80.5483 352.175C80.5483 349.454 78.3429 347.247 75.621 347.247C72.8992 347.247 70.6923 349.454 70.6923 352.175C70.6923 354.897 72.8992 357.103 75.621 357.103C76.6633 357.103 77.6271 356.775 78.4233 356.223L91.2039 369.004H115.3L134.257 387.961H155.189L285.846 518.62V749H287.606V517.891L155.917 386.201H134.987Z" fill="url(#paint1_linear_181_1637)"/>
<path d="M168.495 440.541L138.731 410.777H67.2781C66.8608 408.463 64.8458 406.703 62.41 406.703C59.6725 406.703 57.4531 408.921 57.4531 411.657C57.4531 414.396 59.6725 416.615 62.41 416.615C64.8458 416.615 66.8608 414.855 67.2781 412.537H136.243L126.616 422.166H43.2494C42.8328 419.848 40.8178 418.088 38.3826 418.088C35.6443 418.088 33.4258 420.308 33.4258 423.046C33.4258 425.783 35.6443 428.001 38.3826 428.001C40.8178 428.001 42.8328 426.241 43.2494 423.926H127.344L138.367 412.902L155.231 429.766H57.8238L49.0101 438.58C48.2084 438.022 47.2383 437.691 46.1877 437.691C43.4509 437.691 41.2315 439.911 41.2315 442.647C41.2315 445.384 43.4509 447.604 46.1877 447.604C48.9247 447.604 51.1441 445.384 51.1441 442.647C51.1441 441.597 50.8126 440.625 50.2544 439.824L58.5524 431.526H156.992L167.766 442.301H204.35L283.015 520.967V749H284.775V520.237L205.078 440.541H168.495Z" fill="url(#paint2_linear_181_1637)"/>
<path d="M198.493 473.317L181.014 455.84H124.21C123.795 453.54 121.79 451.791 119.37 451.791C116.649 451.791 114.442 453.998 114.442 456.72C114.442 459.441 116.649 461.647 119.37 461.647C121.79 461.647 123.793 459.899 124.21 457.6H180.285L196.004 473.317H99.3377L79.6524 453.632C80.21 452.831 80.5407 451.859 80.5407 450.808C80.5407 448.072 78.322 445.852 75.5852 445.852C72.8476 445.852 70.6289 448.072 70.6289 450.808C70.6289 453.545 72.8476 455.765 75.5852 455.765C76.6356 455.765 77.6064 455.434 78.4074 454.876L98.6096 475.077H169.113L153.199 490.989H106.61C106.193 488.691 104.191 486.943 101.771 486.943C99.0496 486.943 96.8427 489.148 96.8427 491.869C96.8427 494.592 99.0496 496.797 101.771 496.797C104.191 496.797 106.194 495.05 106.61 492.749H153.928L171.602 475.077H231.945L280.181 523.313V749H281.941V522.583L232.674 473.317H198.493Z" fill="url(#paint3_linear_181_1637)"/>
<path d="M27.9899 491.681C27.2528 491.343 26.6368 490.725 26.2992 489.991C25.6475 488.573 25.719 487.064 26.4965 485.852C27.2516 484.674 28.535 483.972 29.9321 483.972C30.5798 483.972 31.2329 484.122 31.8735 484.416C32.6106 484.754 33.2259 485.371 33.5635 486.105C34.2152 487.524 34.1438 489.032 33.3669 490.243C32.26 491.968 30.009 492.608 27.9899 491.681ZM207.87 504.587L194.665 491.38C195.218 490.584 195.545 489.62 195.545 488.578C195.545 485.855 193.34 483.648 190.617 483.648C187.896 483.648 185.689 485.855 185.689 488.578C185.689 491.299 187.896 493.506 190.617 493.506C191.661 493.506 192.623 493.177 193.421 492.624L205.382 504.587H142.28L136.219 498.527H41.654L34.6084 491.482C34.6834 491.38 34.7796 491.301 34.8484 491.195C35.9553 489.467 36.0694 487.343 35.1626 485.37C34.6455 484.243 33.7388 483.337 32.6099 482.818C29.8015 481.524 26.5819 482.457 25.0144 484.903C23.9076 486.632 23.7934 488.754 24.7008 490.727C25.2193 491.853 26.1247 492.758 27.2528 493.279C28.1267 493.682 29.0272 493.884 29.9307 493.884C31.197 493.884 32.3734 493.444 33.3579 492.721L40.9252 500.287H135.49L140.672 505.467L126.116 520.022H69.7802L61.8115 527.992C61.0091 527.434 60.039 527.103 58.9879 527.103C56.2509 527.103 54.0324 529.322 54.0324 532.059C54.0324 534.796 56.2509 537.015 58.9879 537.015C61.7261 537.015 63.9448 534.796 63.9448 532.059C63.9448 531.008 63.6134 530.038 63.0551 529.236L70.509 521.782H105.813L94.3701 533.222C93.5746 532.671 92.6115 532.342 91.5685 532.342C88.8467 532.342 86.6398 534.549 86.6398 537.27C86.6398 539.993 88.8467 542.2 91.5685 542.2C94.2896 542.2 96.4965 539.993 96.4965 537.27C96.4965 536.228 96.1679 535.266 95.6151 534.467L108.302 521.782H126.845L142.28 506.347H221.466L196.948 530.867H169.217C168.802 528.567 166.799 526.819 164.377 526.819C161.656 526.819 159.449 529.025 159.449 531.747C159.449 534.467 161.656 536.674 164.377 536.674C166.797 536.674 168.8 534.926 169.217 532.627H197.676L223.955 506.347H258.037L277.348 525.66V749H279.108V524.931L258.766 504.587H207.87Z" fill="url(#paint4_linear_181_1637)"/>
<path d="M480.039 406.655L532.753 353.942L560.425 326.271C561.228 326.827 562.196 327.158 563.248 327.158C565.985 327.158 568.204 324.94 568.204 322.202C568.204 319.465 565.985 317.247 563.248 317.247C560.51 317.247 558.292 319.465 558.292 322.202C558.292 323.254 558.623 324.224 559.181 325.025L533.01 351.196V313.3L549.893 296.416H594.694L599.86 291.252C600.655 291.803 601.62 292.132 602.663 292.132C605.384 292.132 607.59 289.927 607.59 287.204C607.59 284.481 605.384 282.276 602.663 282.276C599.941 282.276 597.735 284.481 597.735 287.204C597.735 288.246 598.063 289.211 598.615 290.006L593.965 294.656H551.653L583.067 263.242H607.894L619.549 251.587C620.346 252.14 621.309 252.467 622.352 252.467C625.073 252.467 627.28 250.262 627.28 247.541C627.28 244.818 625.073 242.611 622.352 242.611C619.63 242.611 617.423 244.818 617.423 247.541C617.423 248.583 617.752 249.547 618.304 250.343L607.165 261.482H584.827L617.38 228.929C618.181 229.487 619.153 229.819 620.202 229.819C622.94 229.819 625.16 227.6 625.16 224.861C625.16 222.125 622.94 219.905 620.202 219.905C617.465 219.905 615.246 222.125 615.246 224.861C615.246 225.914 615.578 226.884 616.136 227.685L582.339 261.482H582.328V261.492L562.634 281.187V261.517C564.934 261.102 566.682 259.097 566.682 256.677C566.682 253.956 564.475 251.751 561.754 251.751C559.033 251.751 556.828 253.956 556.828 256.677C556.828 259.099 558.575 261.102 560.874 261.517V282.947L531.25 312.571V329.77L515.508 314.028C516.066 313.228 516.397 312.256 516.397 311.205C516.397 308.468 514.178 306.249 511.441 306.249C508.704 306.249 506.485 308.468 506.485 311.205C506.485 313.944 508.704 316.161 511.441 316.161C512.491 316.161 513.461 315.831 514.264 315.273L531.25 332.258V352.956L478.279 405.927V437.396L357.648 558.026V749H359.408V558.755L480.039 438.124V406.655Z" fill="url(#paint5_linear_181_1637)"/>
<path d="M510.35 454.753L540.115 424.989H586.921L601.891 439.96C601.34 440.757 601.011 441.72 601.011 442.764C601.011 445.486 603.217 447.692 605.939 447.692C608.66 447.692 610.867 445.486 610.867 442.764C610.867 440.043 608.66 437.836 605.939 437.836C604.896 437.836 603.933 438.165 603.136 438.716L589.409 424.989H640.101L655.835 409.258C656.631 409.809 657.595 410.138 658.635 410.138C661.358 410.138 663.563 407.931 663.563 405.21C663.563 402.488 661.358 400.281 658.635 400.281C655.914 400.281 653.709 402.488 653.709 405.21C653.709 406.252 654.036 407.217 654.591 408.012L639.372 423.229H587.649H587.285H565.033L577.718 410.545H616.487C616.902 412.845 618.905 414.593 621.325 414.593C624.048 414.593 626.255 412.386 626.255 409.665C626.255 406.942 624.048 404.737 621.325 404.737C618.905 404.737 616.902 406.486 616.487 408.785H576.989L562.545 423.229H539.387L509.621 452.993H473.04L363.314 562.72V749H365.074V563.448L473.769 454.753H510.35Z" fill="url(#paint6_linear_181_1637)"/>
<path d="M653.964 431.709C656.212 431.709 658.041 433.538 658.041 435.783C658.041 438.031 656.212 439.861 653.964 439.861C651.717 439.861 649.888 438.031 649.888 435.783C649.888 433.538 651.717 431.709 653.964 431.709ZM515.908 480.727L538.933 457.702L555.434 474.204H589.985C590.404 476.522 592.417 478.282 594.855 478.282C597.592 478.282 599.811 476.063 599.811 473.324C599.811 470.589 597.592 468.37 594.855 468.37C592.417 468.37 590.404 470.13 589.987 472.444H556.163L541.057 457.338H632.925L647.465 471.877C646.91 472.673 646.583 473.637 646.583 474.679C646.583 477.402 648.79 479.609 651.513 479.609C654.232 479.609 656.439 477.402 656.439 474.679C656.439 471.958 654.232 469.751 651.513 469.751C650.469 469.751 649.505 470.079 648.709 470.633L634.534 456.458L650.52 440.472C651.488 441.185 652.673 441.621 653.964 441.621C657.183 441.621 659.801 439.002 659.801 435.783C659.801 432.566 657.183 429.949 653.964 429.949C650.745 429.949 648.128 432.566 648.128 435.783C648.128 437.077 648.563 438.26 649.276 439.228L632.925 455.578H538.568L515.18 478.967H452.242L366.145 565.066V749H367.905V565.795L452.971 480.727H515.908Z" fill="url(#paint7_linear_181_1637)"/>
<path d="M252.92 180.004C252.92 177.755 254.749 175.926 256.996 175.926C259.244 175.926 261.073 177.755 261.073 180.004C261.073 182.25 259.244 184.079 256.996 184.079C254.749 184.079 252.92 182.25 252.92 180.004ZM273.569 303.445L258.241 288.118L270.27 276.088V252.506C272.587 252.089 274.347 250.075 274.347 247.638C274.347 244.901 272.127 242.681 269.39 242.681C266.654 242.681 264.434 244.901 264.434 247.638C264.434 250.075 266.194 252.09 268.51 252.506V275.359L257.876 285.993V185.751C260.677 185.323 262.833 182.921 262.833 180.004C262.833 176.785 260.215 174.166 256.996 174.166C253.779 174.166 251.16 176.785 251.16 180.004C251.16 182.921 253.318 185.323 256.116 185.751V229.701L244.485 218.068V152.839L260.738 136.585V84.7513C263.038 84.3359 264.788 82.3331 264.788 79.9131C264.788 77.1921 262.581 74.9851 259.858 74.9851C257.137 74.9851 254.93 77.1921 254.93 79.9131C254.93 82.3331 256.678 84.3359 258.978 84.7513V135.856L244.485 150.35V114.066C246.801 113.651 248.561 111.635 248.561 109.199C248.561 106.461 246.341 104.243 243.605 104.243C240.868 104.243 238.648 106.461 238.648 109.199C238.648 111.635 240.408 113.651 242.725 114.066V218.798L256.116 232.19V288.482L271.809 304.174V371.443L305.092 404.73V749H306.852V404.001L273.569 370.714V303.445Z" fill="url(#paint8_linear_181_1637)"/>
<path d="M330.951 139.688C333.199 139.688 335.027 141.517 335.027 143.764C335.027 146.012 333.199 147.84 330.951 147.84C328.704 147.84 326.875 146.012 326.875 143.764C326.875 141.517 328.704 139.688 330.951 139.688ZM297.923 301.814L325.754 273.983V245.622L312.941 232.81V205.303C315.257 204.887 317.017 202.872 317.017 200.434C317.017 197.698 314.798 195.48 312.061 195.48C309.324 195.48 307.105 197.698 307.105 200.434C307.105 202.872 308.865 204.887 311.181 205.303V233.538L323.994 246.351V273.254L297.043 300.205L288.47 291.632V217.322L296.872 208.918V179.087L327.507 148.453C328.477 149.166 329.659 149.6 330.951 149.6C334.17 149.6 336.787 146.983 336.787 143.764C336.787 140.547 334.17 137.928 330.951 137.928C327.732 137.928 325.115 140.547 325.115 143.764C325.115 145.056 325.55 146.239 326.263 147.209L295.112 178.357V208.189L287.59 215.713L275.654 203.775V148.657L304.968 119.344C305.764 119.897 306.728 120.224 307.77 120.224C310.491 120.224 312.698 118.019 312.698 115.296C312.698 112.575 310.491 110.368 307.77 110.368C305.048 110.368 302.842 112.575 302.842 115.296C302.842 116.34 303.171 117.304 303.724 118.1L275.654 146.168V105.651L292.045 89.2606V28.7747C294.343 28.3593 296.093 26.3546 296.093 23.9346C296.093 21.2137 293.886 19.0067 291.165 19.0067C288.442 19.0067 286.237 21.2137 286.237 23.9346C286.237 26.3546 287.984 28.3593 290.285 28.7747V88.5319L275.654 103.163V63.4677L260.255 48.0695C260.808 47.274 261.135 46.3095 261.135 45.2676C261.135 42.5449 258.93 40.3396 256.207 40.3396C253.487 40.3396 251.281 42.5449 251.281 45.2676C251.281 47.9885 253.487 50.1956 256.207 50.1956C257.251 50.1956 258.216 49.8682 259.011 49.3138L273.894 64.1964V104.923V105.287V147.928L273.725 148.099L273.894 148.268V204.504L286.71 217.322V292.361L296.163 301.814V376.459L307.925 388.223V749H309.685V387.494L297.923 375.73V301.814Z" fill="url(#paint9_linear_181_1637)"/>
<path d="M324.592 414.156L331.204 407.542C332.007 408.102 332.976 408.433 334.029 408.433C336.764 408.433 338.983 406.212 338.983 403.477C338.983 400.738 336.764 398.519 334.029 398.519C331.29 398.519 329.071 400.738 329.071 403.477C329.071 404.526 329.404 405.497 329.96 406.298L324.592 411.668V382.876V381.116L336.727 368.979V314.775L323.898 301.946C324.456 301.143 324.787 300.174 324.787 299.123C324.787 296.386 322.57 294.167 319.831 294.167C317.094 294.167 314.875 296.386 314.875 299.123C314.875 301.86 317.094 304.079 319.831 304.079C320.882 304.079 321.853 303.748 322.654 303.19L334.967 315.503V368.25L324.592 378.627V337.457L310.661 323.527C311.219 322.726 311.55 321.755 311.55 320.704C311.55 317.967 309.333 315.748 306.594 315.748C303.857 315.748 301.638 317.967 301.638 320.704C301.638 323.443 303.857 325.66 306.594 325.66C307.645 325.66 308.615 325.329 309.417 324.771L322.832 338.186V378.627L308.59 364.384C309.148 363.583 309.479 362.611 309.479 361.561C309.479 358.824 307.259 356.604 304.523 356.604C301.784 356.604 299.566 358.824 299.566 361.561C299.566 364.297 301.784 366.517 304.523 366.517C305.573 366.517 306.543 366.186 307.346 365.628L322.832 381.116V443.874L310.756 455.949V749H312.516V456.678L324.592 444.603V414.156Z" fill="url(#paint10_linear_181_1637)"/>
<path d="M326.385 464.192L338.568 452.009V420.176L351.915 406.826V313.143L361.954 303.104V276.384L378.963 259.375V185.721L367.836 174.594V164.275C370.151 163.858 371.911 161.843 371.911 159.407C371.911 156.67 369.691 154.451 366.956 154.451C364.218 154.451 361.998 156.67 361.998 159.407C361.998 161.843 363.758 163.858 366.076 164.275V175.323L377.203 186.449V258.646L361.954 273.895V261.434L345.057 244.538V240.547L359.341 226.262V199.78C361.657 199.364 363.417 197.349 363.417 194.913C363.417 192.177 361.198 189.957 358.461 189.957C355.724 189.957 353.505 192.177 353.505 194.913C353.505 197.349 355.265 199.364 357.581 199.78V225.534L345.057 238.058V165.12C347.373 164.703 349.133 162.688 349.133 160.252C349.133 157.515 346.913 155.296 344.177 155.296C341.44 155.296 339.221 157.515 339.221 160.252C339.221 162.688 340.98 164.703 343.297 165.12V245.267L360.194 262.163V302.375L350.155 312.413V406.097L336.808 419.447V451.28L324.625 463.463V485.049L313.588 496.086V749H315.348V496.815L326.385 485.778V464.192Z" fill="url(#paint11_linear_181_1637)"/>
<path d="M408.566 178.621C408.566 176.373 410.395 174.545 412.644 174.545C414.89 174.545 416.718 176.373 416.718 178.621C416.718 180.868 414.89 182.697 412.644 182.697C410.395 182.697 408.566 180.868 408.566 178.621ZM359.995 495.706L381.268 474.433V394.705L401.855 374.118V294.156L414.988 281.025V247.766L439.531 223.221V167.535V167.17V119.448L456.508 102.473C457.306 103.025 458.268 103.353 459.31 103.353C462.031 103.353 464.238 101.148 464.238 98.4248C464.238 95.7039 462.031 93.4968 459.31 93.4968C456.589 93.4968 454.384 95.7039 454.384 98.4248C454.384 99.4685 454.711 100.433 455.264 101.228L437.771 118.719V165.41L415.557 143.196V41.3022C417.857 40.8851 419.605 38.884 419.605 36.4622C419.605 33.7413 417.399 31.536 414.677 31.536C411.956 31.536 409.749 33.7413 409.749 36.4622C409.749 38.8823 411.496 40.8851 413.797 41.3022V98.2875L394.752 79.2408V57.3922C397.05 56.9768 398.8 54.9722 398.8 52.5521C398.8 49.8312 396.593 47.6259 393.872 47.6259C391.149 47.6259 388.944 49.8312 388.944 52.5521C388.944 54.9739 390.69 56.9768 392.992 57.3922V79.9694L413.797 100.776V143.924L437.771 167.899V222.492L413.228 247.037V280.296L401.855 291.668V224.874L413.524 213.205V184.367C416.322 183.94 418.478 181.537 418.478 178.621C418.478 175.402 415.861 172.785 412.644 172.785C409.425 172.785 406.806 175.402 406.806 178.621C406.806 181.537 408.964 183.94 411.764 184.369V212.476L400.975 223.265L387.793 210.081V127.755C390.109 127.34 391.869 125.325 391.869 122.887C391.869 120.15 389.649 117.933 386.913 117.933C384.176 117.933 381.957 120.15 381.957 122.887C381.957 125.323 383.716 127.338 386.033 127.755V210.81L400.095 224.874V373.39L379.508 393.976V473.704L358.235 494.977V534.092L339.322 553.005V749H341.082V553.733L359.995 534.82V495.706Z" fill="url(#paint12_linear_181_1637)"/>
<path d="M397.093 437.758L422.884 411.967V363.551L436.591 349.844V332.619C438.907 332.202 440.667 330.187 440.667 327.751C440.667 325.014 438.447 322.795 435.711 322.795C432.974 322.795 430.754 325.014 430.754 327.751C430.754 330.189 432.514 332.204 434.831 332.619V349.116L422.884 361.063V322.299L445.667 299.514V278.992C447.985 278.575 449.745 276.56 449.745 274.124C449.745 271.387 447.526 269.168 444.787 269.168C442.052 269.168 439.833 271.387 439.833 274.124C439.833 276.56 441.593 278.575 443.907 278.992V297.025L429.783 282.899V256.177C432.101 255.76 433.861 253.745 433.861 251.309C433.861 248.572 431.642 246.353 428.903 246.353C426.166 246.353 423.949 248.572 423.949 251.309C423.949 253.745 425.709 255.76 428.023 256.177V283.628L443.543 299.149L421.124 321.57V411.238L395.333 437.029V502.174L342.154 555.351V749H343.914V556.079L397.093 502.903V437.758Z" fill="url(#paint13_linear_181_1637)"/>
<path d="M417.435 462.659L441.416 438.677V399.543L467.054 373.907V259.644L488.53 238.169V202.451L500.357 190.624V93.0973C502.673 92.6802 504.433 90.665 504.433 88.2291C504.433 85.4924 502.214 83.2729 499.477 83.2729C496.74 83.2729 494.521 85.4924 494.521 88.2291C494.521 90.665 496.281 92.6802 498.597 93.0973V152.327L469.425 123.155C469.976 122.357 470.305 121.393 470.305 120.351C470.305 117.628 468.1 115.421 465.377 115.421C462.656 115.421 460.449 117.628 460.449 120.351C460.449 123.072 462.656 125.279 465.377 125.279C466.419 125.279 467.382 124.95 468.179 124.397L498.597 154.815V189.896L487.65 200.843L463.226 176.419C463.782 175.618 464.115 174.649 464.115 173.598C464.115 170.861 461.896 168.64 459.159 168.64C456.422 168.64 454.203 170.861 454.203 173.598C454.203 176.335 456.422 178.554 459.159 178.554C460.21 178.554 461.181 178.221 461.982 177.664L486.77 202.451V237.44L466.174 258.034L453.043 244.903V219.464C455.357 219.048 457.119 217.033 457.119 214.595C457.119 211.859 454.901 209.639 452.163 209.639C449.424 209.639 447.205 211.859 447.205 214.595C447.205 217.033 448.967 219.048 451.283 219.464V245.631L465.294 259.644V373.178L439.656 398.815V437.948L415.675 461.93V487.008L344.982 557.697V749H346.742V558.425L417.435 487.737V462.659Z" fill="url(#paint14_linear_181_1637)"/>
<path d="M474.582 292.709C474.582 290.46 476.411 288.632 478.66 288.632C480.908 288.632 482.736 290.46 482.736 292.709C482.736 294.957 480.908 296.786 478.66 296.786C476.411 296.786 474.582 294.957 474.582 292.709ZM604.593 190.508C606.827 190.508 608.641 192.324 608.641 194.556C608.641 196.788 606.827 198.602 604.593 198.602C602.362 198.602 600.545 196.788 600.545 194.556C600.545 192.324 602.362 190.508 604.593 190.508ZM451.391 414.341L495.748 369.984V304.646L586.233 214.162L586.3 214.096L586.49 213.904L601.17 199.222C602.133 199.931 603.31 200.362 604.593 200.362C607.797 200.362 610.401 197.757 610.401 194.556C610.401 191.353 607.797 188.748 604.593 188.748C601.392 188.748 598.785 191.353 598.785 194.556C598.785 195.839 599.218 197.016 599.926 197.977L586.49 211.415V165.256C588.806 164.838 590.566 162.823 590.566 160.389C590.566 157.651 588.347 155.433 585.608 155.433C582.873 155.433 580.654 157.651 580.654 160.389C580.654 162.825 582.414 164.84 584.73 165.256V213.175L560.806 237.097V200.649C563.107 200.232 564.854 198.229 564.854 195.809C564.854 193.088 562.649 190.881 559.926 190.881C557.205 190.881 555 193.088 555 195.809C555 198.229 556.748 200.232 559.046 200.649V238.857L539.869 258.034L525.305 243.47V204.708C527.604 204.292 529.352 202.289 529.352 199.869C529.352 197.147 527.145 194.941 524.425 194.941C521.703 194.941 519.497 197.147 519.497 199.869C519.497 202.289 521.245 204.292 523.545 204.709V244.199L538.625 259.28L495.748 302.157V280.337L511.401 264.683V127.187L520.393 118.195C521.196 118.753 522.165 119.084 523.216 119.084C525.953 119.084 528.171 116.864 528.171 114.128C528.171 111.391 525.953 109.171 523.216 109.171C520.478 109.171 518.26 111.391 518.26 114.128C518.26 115.178 518.591 116.15 519.149 116.951L509.641 126.458V263.955L493.988 279.608V303.917V304.281V345.112L479.54 330.664V298.456C482.338 298.028 484.496 295.626 484.496 292.709C484.496 289.49 481.879 286.872 478.66 286.872C475.439 286.872 472.822 289.49 472.822 292.709C472.822 295.626 474.98 298.028 477.78 298.456V331.392L493.988 347.6V369.255L449.631 413.611V458.229L347.816 560.045V749H349.576V560.773L451.391 458.957V414.341Z" fill="url(#paint15_linear_181_1637)"/>
<path d="M364.839 313.25C364.839 311.003 366.668 309.174 368.916 309.174C371.161 309.174 372.992 311.003 372.992 313.25C372.992 315.498 371.161 317.327 368.916 317.327C366.668 317.327 364.839 315.498 364.839 313.25ZM338.126 466.49L360.267 444.349V373.958L383.686 350.54V288.179C386 287.762 387.762 285.747 387.762 283.311C387.762 280.574 385.541 278.355 382.806 278.355C380.067 278.355 377.848 280.574 377.848 283.311C377.848 285.747 379.608 287.762 381.925 288.179V348.051L369.796 335.921V318.997C372.594 318.569 374.752 316.167 374.752 313.25C374.752 310.031 372.133 307.414 368.916 307.414C365.697 307.414 363.079 310.031 363.079 313.25C363.079 316.167 365.235 318.569 368.036 318.997V336.65L381.561 350.175L358.507 373.229V443.621L336.366 465.761V527.407L324.93 538.844V749H326.69V539.572L338.126 528.136V466.49Z" fill="url(#paint16_linear_181_1637)"/>
<path d="M340.958 495.481L372.686 463.755V381.155L390.434 363.407V326.73C392.75 326.313 394.51 324.298 394.51 321.862C394.51 319.125 392.291 316.906 389.554 316.906C386.817 316.906 384.598 319.125 384.598 321.862C384.598 324.298 386.358 326.313 388.674 326.73V362.678L370.926 380.426V463.026L339.198 494.752V529.755L327.764 541.19V749H329.524V541.918L340.958 530.484V495.481Z" fill="url(#paint17_linear_181_1637)"/>
<path d="M178.461 190.908C178.461 188.66 180.29 186.83 182.537 186.83C184.785 186.83 186.614 188.66 186.614 190.908C186.614 193.155 184.785 194.984 182.537 194.984C180.29 194.984 178.461 193.155 178.461 190.908ZM277.822 413.977V394.955C280.138 394.538 281.898 392.523 281.898 390.087C281.898 387.35 279.679 385.131 276.942 385.131C274.205 385.131 271.986 387.35 271.986 390.087C271.986 392.523 273.746 394.538 276.062 394.955V411.851L261.415 397.204V368.034C263.731 367.619 265.491 365.603 265.491 363.166C265.491 360.431 263.272 358.211 260.535 358.211C257.798 358.211 255.579 360.431 255.579 363.166C255.579 365.603 257.339 367.619 259.655 368.034V397.933L276.062 414.341V435.032L254.641 413.611V353.952L236.698 336.007V250.969C239.026 250.563 240.8 248.544 240.8 246.099C240.8 243.363 238.581 241.141 235.844 241.141C233.107 241.141 230.888 243.363 230.888 246.099C230.888 248.525 232.634 250.536 234.938 250.964V302.629L227.995 295.687C228.551 294.885 228.883 293.913 228.883 292.864C228.883 290.126 226.664 287.908 223.927 287.908C221.19 287.908 218.969 290.126 218.969 292.864C218.969 295.601 221.19 297.819 223.927 297.819C224.976 297.819 225.948 297.488 226.75 296.93L234.938 305.117V336.736L252.881 354.681V411.851L230.753 389.722V370.498L236.724 364.526V359.185C239.04 358.768 240.8 356.752 240.8 354.316C240.8 351.58 238.581 349.36 235.844 349.36C233.107 349.36 230.888 351.58 230.888 354.316C230.888 356.752 232.648 358.768 234.964 359.185V363.798L228.993 369.769V387.962L216.695 375.665V265.468L223.067 259.095V139.876C225.383 139.459 227.143 137.444 227.143 135.008C227.143 132.271 224.925 130.052 222.187 130.052C219.45 130.052 217.232 132.271 217.232 135.008C217.232 137.444 218.992 139.459 221.307 139.876V258.367L215.815 263.86L183.782 231.826L202.329 213.279V180.501C204.645 180.084 206.405 178.068 206.405 175.634C206.405 172.896 204.185 170.678 201.449 170.678C198.712 170.678 196.492 172.896 196.492 175.634C196.492 178.068 198.252 180.085 200.569 180.501V212.55L183.417 229.701V196.654C186.216 196.226 188.374 193.824 188.374 190.908C188.374 187.689 185.755 185.07 182.537 185.07C179.318 185.07 176.701 187.689 176.701 190.908C176.701 193.824 178.857 196.226 181.657 196.654V232.19L214.935 265.468V376.394L302.261 463.72V749H304.021V462.991L277.822 436.792V413.977Z" fill="url(#paint18_linear_181_1637)"/>
<path d="M197.905 345.469C197.905 343.221 199.733 341.393 201.981 341.393C204.228 341.393 206.057 343.221 206.057 345.469C206.057 347.717 204.228 349.545 201.981 349.545C199.733 349.545 197.905 347.717 197.905 345.469ZM202.861 381.644V351.215C205.659 350.788 207.817 348.385 207.817 345.469C207.817 342.252 205.2 339.633 201.981 339.633C198.762 339.633 196.145 342.252 196.145 345.469C196.145 348.385 198.302 350.788 201.101 351.215V380.915L193.135 388.883V328.115L209.019 312.231V278.992C211.335 278.575 213.095 276.56 213.095 274.124C213.095 271.387 210.876 269.168 208.139 269.168C205.4 269.168 203.183 271.387 203.183 274.124C203.183 276.56 204.943 278.575 207.259 278.992V311.503L191.375 327.387V391.372L295.18 495.175V749H296.94V494.446L193.499 391.007L202.861 381.644Z" fill="url(#paint19_linear_181_1637)"/>
<path d="M619.577 298.084C620.716 295.779 623.794 295.098 626.232 296.891C627.386 298.461 627.624 300.207 626.885 301.7C625.744 304.003 622.668 304.684 620.23 302.893C619.077 301.323 618.838 299.577 619.577 298.084ZM663.67 344.703C660.932 344.703 658.712 346.923 658.712 349.661C658.712 350.712 659.045 351.682 659.603 352.484L641.711 370.375V344.487C644.011 344.072 645.759 342.069 645.759 339.649C645.759 336.926 643.554 334.719 640.831 334.719C638.108 334.719 635.903 336.926 635.903 339.649C635.903 342.069 637.652 344.072 639.951 344.487V372.135L619.466 392.619H580.275L601.776 371.116V354.5C604.075 354.084 605.826 352.081 605.826 349.661C605.826 346.939 603.619 344.732 600.896 344.732C598.176 344.732 595.968 346.939 595.968 349.661C595.968 352.081 597.716 354.082 600.016 354.5V370.387L577.786 392.619H550.409V373.958L600.178 324.191H636.239L656.377 304.053C657.174 304.605 658.137 304.933 659.181 304.933C661.902 304.933 664.109 302.727 664.109 300.006C664.109 297.284 661.902 295.078 659.181 295.078C656.458 295.078 654.253 297.284 654.253 300.006C654.253 301.048 654.582 302.013 655.133 302.808L635.51 322.431H601.938L619.72 304.648C620.837 305.344 622.034 305.728 623.231 305.728C625.466 305.728 627.471 304.484 628.463 302.479C629.511 300.367 629.173 297.843 627.56 295.728L627.393 295.561C626.101 294.577 624.662 294.056 623.231 294.056C620.997 294.056 618.991 295.3 618 297.303C617.055 299.207 617.247 301.441 618.468 303.41L548.649 373.229V393.135L514.345 427.439V400.703L535.006 380.042V368.055C537.322 367.638 539.084 365.623 539.084 363.187C539.084 360.448 536.864 358.231 534.126 358.231C531.389 358.231 529.169 360.448 529.169 363.187C529.169 365.623 530.931 367.638 533.246 368.055V379.314L512.585 399.974V428.684H492.169L360.48 560.372V749H362.24V561.101L492.898 430.444H513.829L549.893 394.379H620.197L660.847 353.729C661.648 354.285 662.62 354.616 663.67 354.616C666.405 354.616 668.625 352.398 668.625 349.661C668.625 346.923 666.405 344.703 663.67 344.703Z" fill="url(#paint20_linear_181_1637)"/>
<path d="M303.009 284.828C300.762 284.828 298.933 283 298.933 280.752C298.933 278.503 300.762 276.674 303.009 276.674C305.259 276.674 307.087 278.503 307.087 280.752C307.087 283 305.259 284.828 303.009 284.828ZM299.614 229.003C296.876 229.003 294.658 231.222 294.658 233.959C294.658 236.696 296.876 238.915 299.614 238.915C300.663 238.915 301.635 238.584 302.437 238.026L311.82 247.409V270.699L306.454 276.063C305.486 275.351 304.301 274.914 303.009 274.914C299.792 274.914 297.173 277.533 297.173 280.752C297.173 283.969 299.792 286.588 303.009 286.588C306.228 286.588 308.847 283.969 308.847 280.752C308.847 279.46 308.411 278.276 307.698 277.308L313.58 271.428V246.68L303.682 236.782C304.238 235.979 304.571 235.01 304.571 233.959C304.571 231.222 302.351 229.003 299.614 229.003Z" fill="url(#paint21_linear_181_1637)"/>
<path d="M338.139 228.756C338.139 226.02 335.919 223.8 333.181 223.8C330.446 223.8 328.225 226.02 328.225 228.756C328.225 231.194 329.986 233.209 332.301 233.624V267.95L340.735 276.384V291.099C338.419 291.516 336.659 293.531 336.659 295.967C336.659 298.704 338.878 300.923 341.615 300.923C344.352 300.923 346.571 298.704 346.571 295.967C346.571 293.531 344.811 291.516 342.495 291.101V275.655L334.061 267.221V233.624C336.377 233.209 338.139 231.194 338.139 228.756Z" fill="url(#paint22_linear_181_1637)"/>
<path d="M245.915 292.255C243.178 292.255 240.959 294.475 240.959 297.212C240.959 299.948 243.178 302.168 245.915 302.168C246.966 302.168 247.937 301.837 248.738 301.279L256.118 308.659V331.199C253.802 331.616 252.042 333.631 252.042 336.067C252.042 338.806 254.261 341.023 256.998 341.023C259.735 341.023 261.954 338.806 261.954 336.067C261.954 333.631 260.194 331.616 257.878 331.199V307.93L249.982 300.035C250.54 299.232 250.871 298.26 250.871 297.212C250.871 294.475 248.654 292.255 245.915 292.255Z" fill="url(#paint23_linear_181_1637)"/>
<path d="M274.466 451.741C276.714 451.741 278.543 453.57 278.543 455.817C278.543 458.065 276.714 459.894 274.466 459.894C272.219 459.894 270.39 458.065 270.39 455.817C270.39 453.57 272.219 451.741 274.466 451.741ZM218.634 395.029C215.897 395.029 213.678 397.248 213.678 399.985C213.678 402.723 215.897 404.943 218.634 404.943C219.685 404.943 220.654 404.61 221.457 404.052L269.778 452.375C269.065 453.343 268.63 454.526 268.63 455.817C268.63 459.036 271.247 461.654 274.466 461.654C277.684 461.654 280.303 459.036 280.303 455.817C280.303 452.598 277.684 449.981 274.466 449.981C273.175 449.981 271.99 450.416 271.022 451.129L222.701 402.808C223.259 402.007 223.59 401.036 223.59 399.985C223.59 397.248 221.371 395.029 218.634 395.029Z" fill="url(#paint24_linear_181_1637)"/>
<path d="M117.85 326.57C117.85 323.831 115.631 321.614 112.894 321.614C110.157 321.614 107.938 323.831 107.938 326.57C107.938 329.006 109.698 331.021 112.014 331.438V346.511L137.434 371.931C136.876 372.731 136.543 373.703 136.543 374.752C136.543 377.49 138.762 379.71 141.501 379.71C144.238 379.71 146.457 377.49 146.457 374.752C146.457 372.017 144.238 369.797 141.501 369.797C140.45 369.797 139.479 370.127 138.678 370.686L113.774 345.782V331.438C116.09 331.021 117.85 329.006 117.85 326.57Z" fill="url(#paint25_linear_181_1637)"/>
<path d="M174.613 253.991C177.35 253.991 179.569 251.772 179.569 249.035C179.569 246.298 177.35 244.079 174.613 244.079C173.563 244.079 172.591 244.41 171.79 244.968L165.373 238.551V203.138C167.689 202.722 169.449 200.707 169.449 198.27C169.449 195.533 167.23 193.315 164.493 193.315C161.756 193.315 159.537 195.533 159.537 198.27C159.537 200.707 161.297 202.722 163.613 203.14V239.279L170.546 246.212C169.988 247.015 169.657 247.984 169.657 249.035C169.657 251.772 171.876 253.991 174.613 253.991Z" fill="url(#paint26_linear_181_1637)"/>
<path d="M144.387 281.46C144.387 279.212 146.216 277.383 148.463 277.383C150.711 277.383 152.539 279.212 152.539 281.46C152.539 283.707 150.711 285.536 148.463 285.536C146.216 285.536 144.387 283.707 144.387 281.46ZM166.244 336.614C168.981 336.614 171.201 334.397 171.201 331.66C171.201 328.921 168.981 326.704 166.244 326.704C165.194 326.704 164.222 327.035 163.421 327.591L149.343 313.513V287.206C152.142 286.778 154.299 284.376 154.299 281.46C154.299 278.24 151.68 275.623 148.463 275.623C145.244 275.623 142.627 278.24 142.627 281.46C142.627 284.376 144.783 286.778 147.583 287.206V314.243L162.177 328.837C161.619 329.638 161.288 330.608 161.288 331.66C161.288 334.397 163.508 336.614 166.244 336.614Z" fill="url(#paint27_linear_181_1637)"/>
<path d="M433.861 384.826C431.612 384.826 429.783 382.998 429.783 380.752C429.783 378.502 431.612 376.674 433.861 376.674C436.109 376.674 437.938 378.502 437.938 380.752C437.938 382.998 436.109 384.826 433.861 384.826ZM449.8 320.616C452.116 320.199 453.876 318.184 453.876 315.748C453.876 313.011 451.657 310.792 448.92 310.792C446.181 310.792 443.964 313.011 443.964 315.748C443.964 318.184 445.724 320.199 448.04 320.616V365.327L437.306 376.063C436.338 375.349 435.153 374.914 433.861 374.914C430.641 374.914 428.023 377.531 428.023 380.752C428.023 383.969 430.641 386.586 433.861 386.586C437.08 386.586 439.698 383.969 439.698 380.752C439.698 379.458 439.263 378.274 438.55 377.307L449.8 366.056V320.616Z" fill="url(#paint28_linear_181_1637)"/>
<path d="M539.082 130.92C541.328 130.92 543.156 132.748 543.156 134.996C543.156 137.243 541.328 139.072 539.082 139.072C536.833 139.072 535.004 137.243 535.004 134.996C535.004 132.748 536.833 130.92 539.082 130.92ZM538.202 140.744V198.241L557.875 178.566V164.666C560.192 164.249 561.952 162.234 561.952 159.798C561.952 157.061 559.732 154.842 556.995 154.842C554.259 154.842 552.039 157.061 552.039 159.798C552.039 162.234 553.799 164.249 556.115 164.666V177.838L539.962 193.993V140.742C542.759 140.315 544.916 137.912 544.916 134.996C544.916 131.777 542.299 129.16 539.082 129.16C535.863 129.16 533.244 131.777 533.244 134.996C533.244 137.912 535.402 140.315 538.202 140.744Z" fill="url(#paint29_linear_181_1637)"/>
<path d="M410.104 396.713C412.842 396.713 415.061 394.494 415.061 391.757C415.061 389.018 412.842 386.799 410.104 386.799C407.367 386.799 405.147 389.018 405.147 391.757C405.147 392.806 405.478 393.777 406.036 394.578L392.375 408.239C391.574 407.68 390.605 407.351 389.554 407.351C386.817 407.351 384.598 409.57 384.598 412.305C384.598 415.044 386.817 417.263 389.554 417.263C392.291 417.263 394.51 415.044 394.51 412.305C394.51 411.256 394.179 410.285 393.619 409.484L407.281 395.823C408.083 396.381 409.055 396.713 410.104 396.713Z" fill="url(#paint30_linear_181_1637)"/>
<path d="M436.338 54.3033V89.2551L457.695 67.8993C458.496 68.4572 459.466 68.7881 460.517 68.7881C463.253 68.7881 465.471 66.5687 465.471 63.8319C465.471 61.0951 463.253 58.8758 460.517 58.8758C457.778 58.8758 455.56 61.0951 455.56 63.8319C455.56 64.8827 455.891 65.8524 456.449 66.655L438.098 85.0065V54.3033C440.412 53.8862 442.172 51.871 442.172 49.4351C442.172 46.6983 439.953 44.479 437.218 44.479C434.479 44.479 432.26 46.6983 432.26 49.4351C432.26 51.871 434.02 53.888 436.338 54.3033Z" fill="url(#paint31_linear_181_1637)"/>
<path d="M294.516 47.5961C294.516 50.0319 296.277 52.0471 298.594 52.4642V74.7687L312.359 88.5337L332.722 68.1722L332.813 68.0772L332.979 67.9135L356.068 44.8223V10.2172C358.368 9.80009 360.118 7.79722 360.118 5.37721C360.118 2.65626 357.911 0.449219 355.188 0.449219C352.467 0.449219 350.262 2.65626 350.262 5.37721C350.262 7.79722 352.01 9.80009 354.308 10.2172V44.0937L332.979 65.4249V26.2121C335.295 25.795 337.055 23.7798 337.055 21.3457C337.055 18.6071 334.835 16.3878 332.099 16.3878C329.362 16.3878 327.143 18.6071 327.143 21.3457C327.143 23.7798 328.903 25.795 331.219 26.2121V67.1849L312.359 86.045L300.354 74.0401V52.4642C302.668 52.0471 304.428 50.0319 304.428 47.5961C304.428 44.8593 302.21 42.6399 299.474 42.6399C296.735 42.6399 294.516 44.8593 294.516 47.5961Z" fill="url(#paint32_linear_181_1637)"/>
<path d="M216.11 108.284C218.357 108.284 220.186 110.113 220.186 112.362C220.186 114.61 218.357 116.438 216.11 116.438C213.862 116.438 212.033 114.61 212.033 112.362C212.033 110.113 213.862 108.284 216.11 108.284ZM216.11 118.198C219.329 118.198 221.946 115.58 221.946 112.362C221.946 109.446 219.79 107.044 216.99 106.614V90.6087L237.819 69.7791C238.62 70.3371 239.592 70.668 240.642 70.668C243.379 70.668 245.598 68.4486 245.598 65.7118C245.598 62.975 243.379 60.7556 240.642 60.7556C237.905 60.7556 235.684 62.975 235.684 65.7118C235.684 66.7625 236.017 67.7323 236.575 68.5348L215.23 89.8801V106.614C212.431 107.044 210.273 109.446 210.273 112.362C210.273 115.58 212.892 118.198 216.11 118.198Z" fill="url(#paint33_linear_181_1637)"/>
<path d="M371.232 69.9709V114.562L352.226 133.568V83.3997C354.526 82.9843 356.274 80.9814 356.274 78.5597C356.274 75.8387 354.069 73.6334 351.346 73.6334C348.625 73.6334 346.418 75.8387 346.418 78.5597C346.418 80.9797 348.166 82.9843 350.466 83.3997V133.568L331.831 114.932V96.223C334.13 95.8077 335.879 93.8048 335.879 91.3848C335.879 88.6638 333.672 86.4568 330.951 86.4568C328.229 86.4568 326.021 88.6638 326.021 91.3848C326.021 93.8048 327.771 95.8077 330.071 96.223V115.66L351.346 136.937L372.992 115.291V69.9709C375.291 69.5555 377.039 67.5526 377.039 65.1326C377.039 62.4099 374.833 60.2029 372.112 60.2029C369.391 60.2029 367.184 62.4099 367.184 65.1326C367.184 67.5526 368.932 69.5537 371.232 69.9709Z" fill="url(#paint34_linear_181_1637)"/>
<path d="M194.525 96.2231V142.214L163.183 173.557V166.551C165.481 166.136 167.229 164.131 167.229 161.711C167.229 158.99 165.022 156.785 162.301 156.785C159.58 156.785 157.373 158.99 157.373 161.711C157.373 164.133 159.121 166.136 161.423 166.551V177.806L196.285 142.942V96.2231C198.585 95.8077 200.333 93.8049 200.333 91.3849C200.333 88.6639 198.128 86.4569 195.405 86.4569C192.684 86.4569 190.477 88.6639 190.477 91.3849C190.477 93.8049 192.225 95.8077 194.525 96.2231Z" fill="url(#paint35_linear_181_1637)"/>
<path d="M11.4245 318.18C9.17562 318.18 7.34768 316.352 7.34768 314.104C7.34768 311.858 9.17562 310.028 11.4245 310.028C13.6712 310.028 15.5 311.858 15.5 314.104C15.5 316.352 13.6712 318.18 11.4245 318.18ZM171.201 417.74C173.448 417.74 175.277 419.569 175.277 421.818C175.277 424.064 173.448 425.892 171.201 425.892C168.953 425.892 167.124 424.064 167.124 421.818C167.124 419.569 168.953 417.74 171.201 417.74ZM23.939 391.453L46.388 369.004H65.0783L98.1918 402.116H150.257L166.512 418.375C165.799 419.341 165.364 420.524 165.364 421.818C165.364 425.035 167.981 427.652 171.201 427.652C174.418 427.652 177.037 425.035 177.037 421.818C177.037 418.597 174.418 415.98 171.201 415.98C169.909 415.98 168.724 416.415 167.756 417.131L150.985 400.356H98.9205L16.112 317.548C16.824 316.58 17.26 315.396 17.26 314.104C17.26 310.887 14.6427 308.268 11.4245 308.268C8.20568 308.268 5.58768 310.887 5.58768 314.104C5.58768 317.323 8.20568 319.94 11.4245 319.94C12.7157 319.94 13.9002 319.505 14.8675 318.793L63.3183 367.244H29.7512L12.5925 350.085C13.1453 349.29 13.4739 348.326 13.4739 347.282C13.4739 344.561 11.2677 342.354 8.54519 342.354C5.82405 342.354 3.61719 344.561 3.61719 347.282C3.61719 350.003 5.82405 352.21 8.54519 352.21C9.58816 352.21 10.5521 351.882 11.3482 351.33L29.0224 369.004H43.8992L22.6947 390.208C21.898 389.656 20.9347 389.328 19.8924 389.328C17.1706 389.328 14.9637 391.535 14.9637 394.254C14.9637 396.975 17.1706 399.182 19.8924 399.182C22.6143 399.182 24.8197 396.975 24.8197 394.254C24.8197 393.213 24.4918 392.25 23.939 391.453Z" fill="url(#paint36_linear_181_1637)"/>
<path d="M621.702 482.427C623.95 482.427 625.778 484.255 625.778 486.503C625.778 488.751 623.95 490.579 621.702 490.579C619.456 490.579 617.628 488.751 617.628 486.503C617.628 484.255 619.456 482.427 621.702 482.427ZM660.003 509.272C657.583 509.272 655.58 511.02 655.163 513.32H627.051L611.591 497.86L618.26 491.192C619.228 491.904 620.412 492.339 621.702 492.339C624.921 492.339 627.538 489.722 627.538 486.503C627.538 483.284 624.921 480.667 621.702 480.667C618.485 480.667 615.868 483.284 615.868 486.503C615.868 487.795 616.303 488.979 617.015 489.947L609.982 496.98H555.896L549.834 503.042H514.64L525.763 491.919C526.56 492.471 527.523 492.8 528.567 492.8C531.289 492.8 533.495 490.593 533.495 487.872C533.495 485.15 531.289 482.943 528.567 482.943C525.846 482.943 523.639 485.15 523.639 487.872C523.639 488.914 523.968 489.877 524.519 490.674L512.151 503.042H433.349L368.979 567.412V749H370.739V568.141L434.079 504.802H481.006L501.401 525.2H531.766L548.213 541.647C547.662 542.445 547.333 543.407 547.333 544.449C547.333 547.172 549.54 549.377 552.261 549.377C554.984 549.377 557.191 547.172 557.191 544.449C557.191 541.728 554.984 539.523 552.261 539.523C551.219 539.523 550.255 539.85 549.458 540.403L532.495 523.44H502.131L483.495 504.802H549.834L564.791 519.758H602.166L611.264 528.856C610.706 529.656 610.375 530.628 610.375 531.677C610.375 534.415 612.594 536.635 615.331 536.635C618.07 536.635 620.287 534.415 620.287 531.677C620.287 528.94 618.07 526.721 615.331 526.721C614.28 526.721 613.309 527.053 612.508 527.611L602.895 517.998H565.519L551.443 503.922L556.624 498.74H609.982L626.322 515.08H655.163C655.579 517.38 657.582 519.13 660.003 519.13C662.724 519.13 664.931 516.923 664.931 514.2C664.931 511.479 662.724 509.272 660.003 509.272Z" fill="url(#paint37_linear_181_1637)"/>
<path d="M9.8821 277.839C9.8821 276.797 9.5535 275.833 9.00069 275.037L19.8 264.238V283.279C17.4995 283.695 15.7527 285.698 15.7527 288.118C15.7527 290.84 17.9582 293.046 20.68 293.046C23.4019 293.046 25.6081 290.84 25.6081 288.118C25.6081 285.698 23.8604 283.695 21.56 283.279V262.478L30.34 253.697H55.5053C55.9219 255.998 57.9246 257.745 60.3446 257.745C63.0665 257.745 65.2733 255.54 65.2733 252.817C65.2733 250.095 63.0665 247.889 60.3446 247.889C57.9246 247.889 55.9212 249.637 55.5053 251.937H29.6113L7.75707 273.793C6.96085 273.24 5.99707 272.911 4.95409 272.911C2.23225 272.911 0.0253906 275.118 0.0253906 277.839C0.0253906 280.56 2.23225 282.767 4.95409 282.767C7.67593 282.767 9.8821 280.56 9.8821 277.839Z" fill="url(#paint38_linear_181_1637)"/>
<path d="M57.4531 304.051C60.175 304.051 62.3818 301.844 62.3818 299.123C62.3818 296.4 60.175 294.195 57.4531 294.195C56.4109 294.195 55.4478 294.522 54.6509 295.075L43.3705 283.795V274.242C45.6708 273.825 47.4185 271.822 47.4185 269.402C47.4185 266.681 45.2116 264.474 42.4905 264.474C39.7687 264.474 37.5625 266.681 37.5625 269.402C37.5625 271.822 39.31 273.825 41.6105 274.242V284.524L53.4065 296.319C52.8537 297.116 52.5258 298.079 52.5258 299.123C52.5258 301.844 54.732 304.051 57.4531 304.051Z" fill="url(#paint39_linear_181_1637)"/>
<defs>
<linearGradient id="paint0_linear_181_1637" x1="149.1" y1="125.987" x2="149.1" y2="749.018" gradientUnits="userSpaceOnUse">
<stop stop-color="#01B7F8"/>
<stop offset="1" stop-color="#046BF5"/>
</linearGradient>
<linearGradient id="paint1_linear_181_1637" x1="162.31" y1="267.752" x2="162.31" y2="749.014" gradientUnits="userSpaceOnUse">
<stop stop-color="#01B7F8"/>
<stop offset="1" stop-color="#046BF5"/>
</linearGradient>
<linearGradient id="paint2_linear_181_1637" x1="159.07" y1="406.702" x2="159.07" y2="749.01" gradientUnits="userSpaceOnUse">
<stop stop-color="#01B7F8"/>
<stop offset="1" stop-color="#046BF5"/>
</linearGradient>
<linearGradient id="paint3_linear_181_1637" x1="176.26" y1="445.852" x2="176.26" y2="749.009" gradientUnits="userSpaceOnUse">
<stop stop-color="#01B7F8"/>
<stop offset="1" stop-color="#046BF5"/>
</linearGradient>
<linearGradient id="paint4_linear_181_1637" x1="151.57" y1="482.235" x2="151.57" y2="749.008" gradientUnits="userSpaceOnUse">
<stop stop-color="#01B7F8"/>
<stop offset="1" stop-color="#046BF5"/>
</linearGradient>
<linearGradient id="paint5_linear_181_1637" x1="492.432" y1="219.904" x2="492.432" y2="749.016" gradientUnits="userSpaceOnUse">
<stop stop-color="#01B7F8"/>
<stop offset="1" stop-color="#046BF5"/>
</linearGradient>
<linearGradient id="paint6_linear_181_1637" x1="513.403" y1="400.28" x2="513.403" y2="749.01" gradientUnits="userSpaceOnUse">
<stop stop-color="#01B7F8"/>
<stop offset="1" stop-color="#046BF5"/>
</linearGradient>
<linearGradient id="paint7_linear_181_1637" x1="512.937" y1="429.948" x2="512.937" y2="749.009" gradientUnits="userSpaceOnUse">
<stop stop-color="#01B7F8"/>
<stop offset="1" stop-color="#046BF5"/>
</linearGradient>
<linearGradient id="paint8_linear_181_1637" x1="272.742" y1="74.9839" x2="272.742" y2="749.02" gradientUnits="userSpaceOnUse">
<stop stop-color="#01B7F8"/>
<stop offset="1" stop-color="#046BF5"/>
</linearGradient>
<linearGradient id="paint9_linear_181_1637" x1="294.024" y1="19.0054" x2="294.024" y2="749.021" gradientUnits="userSpaceOnUse">
<stop stop-color="#01B7F8"/>
<stop offset="1" stop-color="#046BF5"/>
</linearGradient>
<linearGradient id="paint10_linear_181_1637" x1="319.27" y1="294.166" x2="319.27" y2="749.013" gradientUnits="userSpaceOnUse">
<stop stop-color="#01B7F8"/>
<stop offset="1" stop-color="#046BF5"/>
</linearGradient>
<linearGradient id="paint11_linear_181_1637" x1="346.268" y1="154.45" x2="346.268" y2="749.018" gradientUnits="userSpaceOnUse">
<stop stop-color="#01B7F8"/>
<stop offset="1" stop-color="#046BF5"/>
</linearGradient>
<linearGradient id="paint12_linear_181_1637" x1="401.765" y1="31.5348" x2="401.765" y2="749.021" gradientUnits="userSpaceOnUse">
<stop stop-color="#01B7F8"/>
<stop offset="1" stop-color="#046BF5"/>
</linearGradient>
<linearGradient id="paint13_linear_181_1637" x1="395.937" y1="246.352" x2="395.937" y2="749.015" gradientUnits="userSpaceOnUse">
<stop stop-color="#01B7F8"/>
<stop offset="1" stop-color="#046BF5"/>
</linearGradient>
<linearGradient id="paint14_linear_181_1637" x1="424.689" y1="83.2718" x2="424.689" y2="749.02" gradientUnits="userSpaceOnUse">
<stop stop-color="#01B7F8"/>
<stop offset="1" stop-color="#046BF5"/>
</linearGradient>
<linearGradient id="paint15_linear_181_1637" x1="479.077" y1="109.17" x2="479.077" y2="749.019" gradientUnits="userSpaceOnUse">
<stop stop-color="#01B7F8"/>
<stop offset="1" stop-color="#046BF5"/>
</linearGradient>
<linearGradient id="paint16_linear_181_1637" x1="356.338" y1="278.354" x2="356.338" y2="749.014" gradientUnits="userSpaceOnUse">
<stop stop-color="#01B7F8"/>
<stop offset="1" stop-color="#046BF5"/>
</linearGradient>
<linearGradient id="paint17_linear_181_1637" x1="361.129" y1="316.905" x2="361.129" y2="749.013" gradientUnits="userSpaceOnUse">
<stop stop-color="#01B7F8"/>
<stop offset="1" stop-color="#046BF5"/>
</linearGradient>
<linearGradient id="paint18_linear_181_1637" x1="240.346" y1="130.051" x2="240.346" y2="749.018" gradientUnits="userSpaceOnUse">
<stop stop-color="#01B7F8"/>
<stop offset="1" stop-color="#046BF5"/>
</linearGradient>
<linearGradient id="paint19_linear_181_1637" x1="244.145" y1="269.167" x2="244.145" y2="749.014" gradientUnits="userSpaceOnUse">
<stop stop-color="#01B7F8"/>
<stop offset="1" stop-color="#046BF5"/>
</linearGradient>
<linearGradient id="paint20_linear_181_1637" x1="514.516" y1="294.055" x2="514.516" y2="749.013" gradientUnits="userSpaceOnUse">
<stop stop-color="#01B7F8"/>
<stop offset="1" stop-color="#046BF5"/>
</linearGradient>
<linearGradient id="paint21_linear_181_1637" x1="304.117" y1="229.003" x2="304.117" y2="286.59" gradientUnits="userSpaceOnUse">
<stop stop-color="#01B7F8"/>
<stop offset="1" stop-color="#046BF5"/>
</linearGradient>
<linearGradient id="paint22_linear_181_1637" x1="337.396" y1="223.8" x2="337.396" y2="300.926" gradientUnits="userSpaceOnUse">
<stop stop-color="#01B7F8"/>
<stop offset="1" stop-color="#046BF5"/>
</linearGradient>
<linearGradient id="paint23_linear_181_1637" x1="251.454" y1="292.255" x2="251.454" y2="341.025" gradientUnits="userSpaceOnUse">
<stop stop-color="#01B7F8"/>
<stop offset="1" stop-color="#046BF5"/>
</linearGradient>
<linearGradient id="paint24_linear_181_1637" x1="246.982" y1="395.029" x2="246.982" y2="461.656" gradientUnits="userSpaceOnUse">
<stop stop-color="#01B7F8"/>
<stop offset="1" stop-color="#046BF5"/>
</linearGradient>
<linearGradient id="paint25_linear_181_1637" x1="127.193" y1="321.614" x2="127.193" y2="379.711" gradientUnits="userSpaceOnUse">
<stop stop-color="#01B7F8"/>
<stop offset="1" stop-color="#046BF5"/>
</linearGradient>
<linearGradient id="paint26_linear_181_1637" x1="169.551" y1="193.315" x2="169.551" y2="253.993" gradientUnits="userSpaceOnUse">
<stop stop-color="#01B7F8"/>
<stop offset="1" stop-color="#046BF5"/>
</linearGradient>
<linearGradient id="paint27_linear_181_1637" x1="156.91" y1="275.623" x2="156.91" y2="336.616" gradientUnits="userSpaceOnUse">
<stop stop-color="#01B7F8"/>
<stop offset="1" stop-color="#046BF5"/>
</linearGradient>
<linearGradient id="paint28_linear_181_1637" x1="440.947" y1="310.792" x2="440.947" y2="386.588" gradientUnits="userSpaceOnUse">
<stop stop-color="#01B7F8"/>
<stop offset="1" stop-color="#046BF5"/>
</linearGradient>
<linearGradient id="paint29_linear_181_1637" x1="547.594" y1="129.16" x2="547.594" y2="198.243" gradientUnits="userSpaceOnUse">
<stop stop-color="#01B7F8"/>
<stop offset="1" stop-color="#046BF5"/>
</linearGradient>
<linearGradient id="paint30_linear_181_1637" x1="399.826" y1="386.799" x2="399.826" y2="417.264" gradientUnits="userSpaceOnUse">
<stop stop-color="#01B7F8"/>
<stop offset="1" stop-color="#046BF5"/>
</linearGradient>
<linearGradient id="paint31_linear_181_1637" x1="448.861" y1="44.4789" x2="448.861" y2="89.2564" gradientUnits="userSpaceOnUse">
<stop stop-color="#01B7F8"/>
<stop offset="1" stop-color="#046BF5"/>
</linearGradient>
<linearGradient id="paint32_linear_181_1637" x1="327.309" y1="0.449066" x2="327.309" y2="88.5363" gradientUnits="userSpaceOnUse">
<stop stop-color="#01B7F8"/>
<stop offset="1" stop-color="#046BF5"/>
</linearGradient>
<linearGradient id="paint33_linear_181_1637" x1="227.932" y1="60.7555" x2="227.932" y2="118.2" gradientUnits="userSpaceOnUse">
<stop stop-color="#01B7F8"/>
<stop offset="1" stop-color="#046BF5"/>
</linearGradient>
<linearGradient id="paint34_linear_181_1637" x1="351.524" y1="60.2027" x2="351.524" y2="136.939" gradientUnits="userSpaceOnUse">
<stop stop-color="#01B7F8"/>
<stop offset="1" stop-color="#046BF5"/>
</linearGradient>
<linearGradient id="paint35_linear_181_1637" x1="178.848" y1="86.4567" x2="178.848" y2="177.809" gradientUnits="userSpaceOnUse">
<stop stop-color="#01B7F8"/>
<stop offset="1" stop-color="#046BF5"/>
</linearGradient>
<linearGradient id="paint36_linear_181_1637" x1="90.3061" y1="308.268" x2="90.3061" y2="427.656" gradientUnits="userSpaceOnUse">
<stop stop-color="#01B7F8"/>
<stop offset="1" stop-color="#046BF5"/>
</linearGradient>
<linearGradient id="paint37_linear_181_1637" x1="516.919" y1="480.666" x2="516.919" y2="749.008" gradientUnits="userSpaceOnUse">
<stop stop-color="#01B7F8"/>
<stop offset="1" stop-color="#046BF5"/>
</linearGradient>
<linearGradient id="paint38_linear_181_1637" x1="32.6415" y1="247.889" x2="32.6415" y2="293.047" gradientUnits="userSpaceOnUse">
<stop stop-color="#01B7F8"/>
<stop offset="1" stop-color="#046BF5"/>
</linearGradient>
<linearGradient id="paint39_linear_181_1637" x1="49.9692" y1="264.474" x2="49.9692" y2="304.052" gradientUnits="userSpaceOnUse">
<stop stop-color="#01B7F8"/>
<stop offset="1" stop-color="#046BF5"/>
</linearGradient>
</defs>
</svg>
