<svg width="24" height="24" viewBox="0 0 24 24" fill="none" xmlns="http://www.w3.org/2000/svg">
<path fill-rule="evenodd" clip-rule="evenodd" d="M15.5718 16.1359C16.2026 16.1359 16.714 15.6245 16.714 14.9937C16.714 14.3629 16.2026 13.8516 15.5718 13.8516C14.941 13.8516 14.4297 14.3629 14.4297 14.9937C14.4297 15.6245 14.941 16.1359 15.5718 16.1359Z" stroke="white" stroke-width="1.5" stroke-linecap="round" stroke-linejoin="round"/>
<path fill-rule="evenodd" clip-rule="evenodd" d="M16.5435 10.5763L16.8808 11.6819C16.9954 12.0632 17.3862 12.29 17.774 12.2005L18.8956 11.9409C19.3315 11.8431 19.7804 12.0405 20.0029 12.4279C20.2254 12.8153 20.1698 13.3024 19.8657 13.6297L19.0814 14.4757C18.8095 14.768 18.8095 15.2205 19.0814 15.5127L19.8657 16.3587C20.1705 16.6859 20.2265 17.1736 20.0038 17.5614C19.7812 17.9492 19.3318 18.1466 18.8956 18.0483L17.774 17.7879C17.3863 17.6993 16.9961 17.9258 16.8808 18.3064L16.5435 19.409C16.4151 19.8375 16.0207 20.131 15.5735 20.131C15.1261 20.131 14.7318 19.8375 14.6034 19.409L14.2668 18.3027C14.1497 17.9231 13.7605 17.6974 13.3729 17.7841L12.2521 18.0445C11.8158 18.1428 11.3664 17.9454 11.1438 17.5576C10.9211 17.1698 10.9772 16.6821 11.282 16.3549L12.0663 15.5089C12.338 15.2167 12.338 14.7641 12.0663 14.4719L11.282 13.6259C10.9767 13.299 10.9204 12.811 11.1432 12.4232C11.366 12.0352 11.8158 11.8381 12.2521 11.9371L13.3729 12.1967C13.7609 12.2862 14.1519 12.0594 14.2668 11.6782L14.6034 10.5726C14.7326 10.1443 15.1276 9.85163 15.5748 9.85254C16.0222 9.85339 16.4159 10.1476 16.5435 10.5763Z" stroke="white" stroke-width="1.5" stroke-linecap="round" stroke-linejoin="round"/>
<path d="M19.9575 9.55723C19.5958 8.44284 18.7284 7.56509 17.6184 7.1901C16.5084 6.81509 15.2864 6.98697 14.3229 7.65363C13.7641 4.68846 10.995 2.66969 8.00099 3.04481C5.00703 3.41992 2.82152 6.05945 3.0115 9.07087C3.20147 12.0822 5.70138 14.4262 8.71875 14.422" stroke="white" stroke-width="1.5" stroke-linecap="round" stroke-linejoin="round"/>
</svg>
