<svg width="24" height="24" viewBox="0 0 24 24" fill="none" xmlns="http://www.w3.org/2000/svg">
<g clip-path="url(#clip0_236_3332)">
<path fill-rule="evenodd" clip-rule="evenodd" d="M12 8.0625C13.2426 8.0625 14.25 7.05514 14.25 5.8125C14.25 4.56986 13.2426 3.5625 12 3.5625C10.7574 3.5625 9.75 4.56986 9.75 5.8125C9.75 7.05514 10.7574 8.0625 12 8.0625Z" stroke="white" stroke-width="0.964286" stroke-linecap="round" stroke-linejoin="round"/>
<path fill-rule="evenodd" clip-rule="evenodd" d="M14.8125 13.6875V12C14.8125 10.4467 13.5533 9.1875 12 9.1875C10.4467 9.1875 9.1875 10.4467 9.1875 12V13.6875H10.3125L10.875 18.1875H13.125L13.6875 13.6875H14.8125Z" stroke="white" stroke-width="0.964286" stroke-linecap="round" stroke-linejoin="round"/>
<path fill-rule="evenodd" clip-rule="evenodd" d="M6.375 9.1875C7.30698 9.1875 8.0625 8.43198 8.0625 7.5C8.0625 6.56802 7.30698 5.8125 6.375 5.8125C5.44302 5.8125 4.6875 6.56802 4.6875 7.5C4.6875 8.43198 5.44302 9.1875 6.375 9.1875Z" stroke="white" stroke-width="0.964286" stroke-linecap="round" stroke-linejoin="round"/>
<path d="M7.275 10.4605C6.41663 10.1716 5.47169 10.3135 4.73593 10.8416C4.00016 11.3697 3.56346 12.2196 3.5625 13.1253V13.6878H4.6875L5.25 17.0628H7.5L7.782 15.3708" stroke="white" stroke-width="0.964286" stroke-linecap="round" stroke-linejoin="round"/>
<path fill-rule="evenodd" clip-rule="evenodd" d="M17.625 9.1875C18.5569 9.1875 19.3125 8.43198 19.3125 7.5C19.3125 6.56802 18.5569 5.8125 17.625 5.8125C16.693 5.8125 15.9375 6.56802 15.9375 7.5C15.9375 8.43198 16.693 9.1875 17.625 9.1875Z" stroke="white" stroke-width="0.964286" stroke-linecap="round" stroke-linejoin="round"/>
<path d="M16.7257 10.4605C17.5841 10.1716 18.5291 10.3135 19.2648 10.8416C20.0006 11.3697 20.4372 12.2196 20.4382 13.1253V13.6878H19.3132L18.7507 17.0628H16.5007L16.2188 15.3708" stroke="white" stroke-width="0.964286" stroke-linecap="round" stroke-linejoin="round"/>
<path d="M20.4375 18.75C20.4375 19.6823 16.6597 20.4375 12 20.4375C7.34025 20.4375 3.5625 19.6823 3.5625 18.75" stroke="white" stroke-width="0.964286" stroke-linecap="round" stroke-linejoin="round"/>
</g>
<defs>
<clipPath id="clip0_236_3332">
<rect width="18" height="18" fill="white" transform="translate(3 3)"/>
</clipPath>
</defs>
</svg>
