<svg width="24" height="24" viewBox="0 0 24 24" fill="none" xmlns="http://www.w3.org/2000/svg">
<path d="M19.0085 4.9541H4.78894C4.24104 4.9541 3.79688 5.39826 3.79688 5.94617V19.0083C3.79688 19.5562 4.24104 20.0004 4.78894 20.0004H19.0085C19.5564 20.0004 20.0006 19.5562 20.0006 19.0083V5.94617C20.0006 5.39826 19.5564 4.9541 19.0085 4.9541Z" stroke="gray" stroke-width="1.5" stroke-linecap="round" stroke-linejoin="round"/>
<path d="M3.79688 8.42676H20.0006" stroke="gray" stroke-width="1.5" stroke-linecap="round" stroke-linejoin="round"/>
<path d="M3.79688 15.3715H7.71123C8.14969 15.3716 8.55058 15.1239 8.74672 14.7318L10.1163 11.9918C10.2211 11.7822 10.442 11.6565 10.6757 11.6734C10.9094 11.6903 11.1099 11.8465 11.1834 12.069L12.6148 16.3629C12.6886 16.585 12.8888 16.7408 13.1222 16.7577C13.3556 16.7746 13.5762 16.6493 13.6811 16.4401L15.0546 13.6971C15.2504 13.3049 15.651 13.0569 16.0893 13.0567H20.0006" stroke="gray" stroke-width="1.5" stroke-linecap="round" stroke-linejoin="round"/>
</svg>
